<?xml version="1.0" encoding="UTF-8"?>
<svg width="16px" height="16px" viewBox="0 0 16 16" version="1.1" xmlns="http://www.w3.org/2000/svg" xmlns:xlink="http://www.w3.org/1999/xlink">
    <title>锁屏</title>
    <g id="页面-1" stroke="none" stroke-width="1" fill="none" fill-rule="evenodd">
        <g id="icon" transform="translate(-285.000000, -18.000000)" fill-rule="nonzero">
            <g id="锁屏" transform="translate(285.803114, 18.000000)">
                <path d="M7.4296875,9.71109375 C7.11216523,9.71160991 6.85489116,9.96888398 6.854375,10.2864063 L6.854375,11.9926563 C6.87751567,12.290497 7.12594913,12.5203772 7.4246875,12.5203772 C7.72342587,12.5203772 7.97185933,12.290497 7.99500007,11.9926563 L7.99500007,10.2864063 C7.99515625,9.9646875 7.7415625,9.71109375 7.4296875,9.71109375 L7.4296875,9.71109375 Z" id="路径" fill="#040000"></path>
                <path d="M13.1432813,6.28890625 L11.9926563,6.28890625 L11.9926563,4.53375 C11.9926563,1.6965625 9.69171875,0 7.45890625,0 C5.28453125,0 2.85671875,1.86234375 2.85671875,4.53375 L2.85671875,6.2790625 L1.71609375,6.2790625 C0.7703125,6.28890625 0,7.049375 0,7.99515625 L0,14.2839062 C0.00146267419,15.2310721 0.768927864,15.9985373 1.71609375,16 L13.1432813,16 C14.0904471,15.9985373 14.8579123,15.2310721 14.859375,14.2839062 L14.859375,7.99515625 C14.8495313,7.049375 14.0889062,6.28890625 13.1432813,6.28890625 Z M3.9975,4.53375 C3.9975,2.59375 5.82078125,1.140625 7.45890625,1.140625 C9.12625,1.140625 10.8617188,2.408125 10.8617188,4.52390625 L10.8617188,6.2790625 L3.9975,6.2790625 L3.9975,4.53375 Z M13.7085938,14.28375 C13.7082499,14.6013334 13.4510205,14.8587724 13.1334375,14.859375 L1.71609375,14.859375 C1.39844956,14.8589446 1.14105535,14.6015504 1.140625,14.2839062 L1.140625,7.99515625 C1.14114116,7.67763398 1.39841523,7.42035991 1.7159375,7.41984375 L13.1432813,7.41984375 C13.4608645,7.42027389 13.7182336,7.67757309 13.71875,7.99515625 L13.7085938,14.28375 Z" id="形状" fill="#333333"></path>
            </g>
        </g>
    </g>
</svg>