<?xml version="1.0" encoding="UTF-8"?>
<svg width="15px" height="16px" viewBox="0 0 15 16" version="1.1" xmlns="http://www.w3.org/2000/svg" xmlns:xlink="http://www.w3.org/1999/xlink">
    <title>Clear-1</title>
    <g id="页面-1" stroke="none" stroke-width="1" fill="none" fill-rule="evenodd">
        <g id="icon" transform="translate(-218.000000, -18.000000)" fill="#333333" fill-rule="nonzero">
            <g id="Clear-1" transform="translate(218.007860, 18.000000)">
                <path d="M13.9798606,7.86958464 L12.6167521,5.18981688 C12.3773595,4.71996427 11.9021473,4.42876284 11.3751264,4.42876284 L9.29384007,4.42876284 C9.27418844,4.42876284 9.25810983,4.41268423 9.25810983,4.3930326 L9.25810983,1.00580616 C9.25810983,0.450200983 8.80612233,0 8.25230367,0 L6.64444301,0 C6.08883783,0 5.63863685,0.451987494 5.63863685,1.00580616 L5.63863685,4.3930326 C5.63863685,4.41268423 5.62255824,4.42876284 5.60290661,4.42876284 L3.51983381,4.42876284 C2.99281282,4.42876284 2.51760067,4.71996427 2.27820809,5.18981688 L0.915099557,7.86958464 C0.750740468,8.19294328 0.765032563,8.57168379 0.954402817,8.88075033 C1.13841354,9.18088432 1.45283962,9.36310853 1.80120943,9.3738276 C1.71545686,11.1782046 1.11697539,13.0522555 0.189775752,14.3671282 C-0.0335382278,14.6851273 -0.0621224172,15.096025 0.116528766,15.4408218 C0.29517995,15.7856186 0.647122782,16 1.03658236,16 L11.7824511,16 C12.4077302,16 12.9615489,15.5783832 13.125908,14.9745422 C13.4028173,13.965163 13.6332773,13.0468959 13.6511424,12.0285842 C13.6707941,11.088879 13.4921429,10.2134882 13.1151889,9.3738276 C13.4546261,9.35417597 13.7601197,9.17373828 13.9405574,8.88075033 C14.1299276,8.57168379 14.1442197,8.19294328 13.9798606,7.86958464 L13.9798606,7.86958464 Z M1.80656896,8.32335864 L3.16967749,5.64359089 C3.23756494,5.51138901 3.37155333,5.42920947 3.51983381,5.42920947 L5.59933359,5.42920947 C6.17101738,5.42920947 6.63551045,4.96471639 6.63551045,4.3930326 L6.63551045,1.00580616 C6.63551045,1.00401965 6.63908348,1.00044663 6.64086999,1.00044663 L8.24873064,1.00044663 C8.25051715,1.00044663 8.25409018,1.00401965 8.25409018,1.00580616 L8.25409018,4.3930326 C8.25409018,4.96471639 8.71858325,5.42920947 9.29026704,5.42920947 L11.3697668,5.42920947 C11.5180473,5.42920947 11.6520357,5.51138901 11.7199231,5.64359089 L13.0830317,8.32335864 C13.0866047,8.32871818 13.0919642,8.34122376 13.0812452,8.35908888 C13.0705261,8.376954 13.0580205,8.376954 13.0508745,8.376954 L1.83872618,8.376954 C1.83158013,8.376954 1.81907455,8.376954 1.80835547,8.35908888 C1.7976364,8.34122376 1.80299594,8.32871818 1.80656896,8.32335864 Z M12.6524823,12.0107191 C12.6364037,12.9129075 12.4220223,13.7668602 12.1629781,14.7101385 C12.1165288,14.8798571 11.9611022,14.9995534 11.7842376,14.9995534 L9.52251358,14.9995534 C9.72438942,14.6011612 9.85301827,14.2134882 9.93519782,13.9062081 C10.0620402,13.4292095 10.1263546,12.9504243 10.1245681,12.5127289 C10.1227816,12.2072354 9.84765874,11.9749888 9.54573823,12.0232247 C9.30277263,12.0625279 9.12412144,12.2733363 9.12412144,12.5198749 C9.12590795,13.2827155 8.87222327,14.2742296 8.36128089,14.9995534 L5.13484051,14.9995534 C5.40639031,14.6118803 5.6011201,14.2170612 5.73510849,13.8937025 C5.91375967,13.4595802 6.04596155,13.0058062 6.113849,12.5984815 C6.16387133,12.2947745 5.92805177,12.0178651 5.62077173,12.0178651 C5.37780612,12.0178651 5.16878424,12.1929433 5.12769447,12.4341224 C5.07767213,12.7306833 4.97941398,13.1076373 4.81148187,13.5131755 C4.63104418,13.9526574 4.31483158,14.5511389 3.81818129,15.0013399 L1.03836887,15.0013399 C1.02943631,15.0013399 1.01693073,15.0013399 1.00621166,14.9816883 C0.99549259,14.9620366 1.00263864,14.9531041 1.00799817,14.945958 C1.53859219,14.1938365 1.98700666,13.2577043 2.30321925,12.2411791 C2.59263417,11.3104064 2.76235279,10.3313979 2.80344257,9.37740063 L11.9968325,9.37740063 C12.455966,10.2063421 12.6703474,11.0710138 12.6524823,12.0107191 Z" id="形状"></path>
            </g>
        </g>
    </g>
</svg>