<?xml version="1.0" encoding="UTF-8"?>
<svg width="15px" height="16px" viewBox="0 0 15 16" version="1.1" xmlns="http://www.w3.org/2000/svg" xmlns:xlink="http://www.w3.org/1999/xlink">
    <title>符号-文档</title>
    <g id="页面-1" stroke="none" stroke-width="1" fill="none" fill-rule="evenodd">
        <g id="icon" transform="translate(-59.000000, -18.000000)" fill="#333333" fill-rule="nonzero">
            <g id="符号-文档" transform="translate(59.841262, 18.000000)">
                <path d="M1.944,0 C0.870285714,0 0,0.895428571 0,2 L0,14 C0,15.1045714 0.870285714,16 1.944,16 L11.664,16 C12.7371429,16 13.7142857,15.1045714 13.7142857,14 L13.7142857,3.52 L10.3902857,0 L1.944,0 Z M9.71428571,1.14285714 L12.5714286,4 L10.1811429,4 C9.92330478,4 9.71428571,3.79098094 9.71428571,3.53314286 L9.71428571,1.14285714 L9.71428571,1.14285714 Z M11.6188571,14.8571429 L2.09542857,14.8571429 C1.56971429,14.8571429 1.14285714,14.4182857 1.14285714,13.8777143 L1.14285714,2.12228571 C1.14285714,1.58171429 1.56914286,1.14285714 2.09542857,1.14285714 L8.76171429,1.14285714 L8.76171429,4.08171429 C8.76171429,4.62285714 9.18857143,5.06114286 9.71428571,5.06114286 L12.5714286,5.06114286 L12.5714286,13.8777143 C12.5714286,14.4182857 12.1451429,14.8571429 11.6188571,14.8571429 Z M7.55885714,6.28571429 L2.72685714,6.28571429 C2.46742857,6.25542857 2.27542857,6.00971429 2.288,5.72571429 C2.26285714,5.43371429 2.45885714,5.17371429 2.72685714,5.14285714 L7.55885714,5.14285714 C7.82742857,5.17371429 8.02285714,5.43371429 7.99771429,5.72571429 C8.01085714,6.00971429 7.81828571,6.25542857 7.55885714,6.28571429 L7.55885714,6.28571429 Z M10.9931429,9.14285714 L2.72114286,9.14285714 C2.46742857,9.088 2.28571429,8.84914286 2.28571429,8.57142857 C2.28571429,8.29371429 2.46742857,8.05485714 2.72057143,8 L10.9942857,8 C11.2474286,8.05485714 11.4291429,8.29371429 11.4291429,8.57142857 C11.4291429,8.84914286 11.2474286,9.088 10.9942857,9.14285714 L10.9931429,9.14285714 Z M10.9931429,12 L2.72114286,12 C2.46742857,11.9451429 2.28571429,11.7062857 2.28571429,11.4285714 C2.28571429,11.1508571 2.46742857,10.912 2.72057143,10.8571429 L10.9942857,10.8571429 C11.2474286,10.912 11.4291429,11.1508571 11.4291429,11.4285714 C11.4291429,11.7062857 11.2474286,11.9451429 10.9942857,12 L10.9931429,12 Z" id="形状"></path>
            </g>
        </g>
    </g>
</svg>