<?xml version="1.0" encoding="UTF-8"?>
<svg width="15px" height="16px" viewBox="0 0 15 16" version="1.1" xmlns="http://www.w3.org/2000/svg" xmlns:xlink="http://www.w3.org/1999/xlink">
    <title>指南</title>
    <g id="页面-1" stroke="none" stroke-width="1" fill="none" fill-rule="evenodd">
        <g id="icon" transform="translate(-140.000000, -18.000000)" fill="#333333" fill-rule="nonzero">
            <g id="指南" transform="translate(140.376537, 18.000000)">
                <path d="M12.75,0 C13.1257234,0 13.4860581,0.140475781 13.7517346,0.390524285 C14.0174112,0.640572789 14.1666667,0.97971134 14.1666667,1.33333333 L14.1666667,14.6666667 C14.1666667,15.0202887 14.0174112,15.3594272 13.7517346,15.6094757 C13.4860581,15.8595242 13.1257234,16 12.75,16 L1.41666668,16 C1.04094332,16 0.680608603,15.8595242 0.414932064,15.6094757 C0.149255526,15.3594272 0,15.0202887 0,14.6666667 L0,1.33333333 C0,0.97971134 0.149255526,0.640572789 0.414932064,0.390524285 C0.680608603,0.140475781 1.04094332,0 1.41666668,0 L12.75,0 Z M12.75,13.3333333 L1.41666668,13.3333333 L1.41666668,14.6666667 L12.75,14.6666667 L12.75,13.3333333 L12.75,13.3333333 Z M2.83333334,1.33333333 L1.41666668,1.33333333 L1.41666668,12 L12.75,12 L12.75,1.33333333 L7.08333334,1.33333333 L7.08333334,5.538 C7.08324697,5.64508907 7.02849923,5.7456181 6.93617706,5.80821164 C6.84385488,5.87080518 6.72520187,5.88784019 6.61725,5.854 L4.95266668,5.33333333 L3.300125,5.85333333 C3.19208474,5.88743957 3.07320752,5.87053425 2.98069669,5.80790797 C2.88818586,5.74528169 2.83334367,5.64458567 2.83333334,5.53733333 L2.83333334,1.33333333 Z M5.66666668,1.33333333 L4.25,1.33333333 L4.25,4.14866667 L4.95125,3.928 L5.66666668,4.152 L5.66666668,1.33333333 Z" id="形状"></path>
            </g>
        </g>
    </g>
</svg>