<?xml version="1.0" standalone="no"?>
<!DOCTYPE svg PUBLIC "-//W3C//DTD SVG 1.1//EN" "http://www.w3.org/Graphics/SVG/1.1/DTD/svg11.dtd">
<svg t="1692843106802" class="icon" viewBox="0 0 1024 1024" version="1.1"
    xmlns="http://www.w3.org/2000/svg" p-id="4105" xmlns:xlink="http://www.w3.org/1999/xlink"
    width="200" height="200">
    <path
        d="M1014.176 962.688l-174.144-186.176a470.944 470.944 0 0 0 109.408-302.272C949.44 212.768 736.48 0 474.688 0 212.96 0 0 212.736 0 474.24s212.96 474.24 474.72 474.24a471.968 471.968 0 0 0 196.544-42.464c18.368-8.352 26.464-29.984 18.112-48.288a36.416 36.416 0 0 0-48.352-18.08 399.872 399.872 0 0 1-166.336 35.904c-221.472 0-401.632-180-401.632-401.28 0-221.216 180.16-401.28 401.632-401.28 221.504 0 401.728 180 401.728 401.28a399.04 399.04 0 0 1-111.936 277.888 36.48 36.48 0 0 0 0.992 51.584c1.088 1.056 2.528 1.472 3.776 2.368 0.992 1.472 1.504 3.136 2.752 4.448l188.864 201.888c7.168 7.712 16.896 11.552 26.656 11.552 8.96 0 17.888-3.232 24.928-9.856 14.72-13.696 15.52-36.768 1.76-51.488z"
        p-id="4106"></path>
</svg>